/* XPM */
static char *Free_Converter_com_grass_side_67584610[] = {
/* columns rows colors chars-per-pixel */
"16 16 31 1 ",
"  c #593D29",
". c #79553A",
"X c #745844",
"o c #6C6C6C",
"O c #966C4A",
"+ c #509026",
"@ c #57972D",
"# c #5F9F35",
"$ c #60A036",
"% c #62A238",
"& c #64A43A",
"* c #66A63C",
"= c #68A83E",
"- c #6AAA40",
"; c #6DAD43",
": c #70B046",
"> c #73B349",
", c #74B44A",
"< c #76B64C",
"1 c #7EBE54",
"2 c #7FBF55",
"3 c #B9855C",
"4 c #81B051",
"5 c #8AB95A",
"6 c #8DBC5D",
"7 c #90BF60",
"8 c #92C162",
"9 c #93C263",
"0 c #97C667",
"q c #9CCB6C",
"w c gray53",
/* pixels */
",<>**:$;1,-*-$+;",
",;544 =%$97>$;*;",
"6 q&- : ,190 @$ ",
" o  :   # ; .  .",
"O.O3 O..   o.O .",
". OO.O   .. ...3",
"3...w..33.33.O.O",
"..33OO..O OO..OO",
"O..O.O. .OO... .",
".O ..  .....33.O",
".O.33.3O 33 OOw.",
"O..OO3.OoOO. O. ",
". O.OO3.......33",
".O..X.OO. 3 .3OO",
"O. 3. . 33.O..OO",
"O.3OO.w.OO..OO. "
};
